<?xml version="1.0" encoding="UTF-8" standalone="no"?>
<svg
   xmlns:dc="http://purl.org/dc/elements/1.1/"
   xmlns:cc="http://creativecommons.org/ns#"
   xmlns:rdf="http://www.w3.org/1999/02/22-rdf-syntax-ns#"
   xmlns:svg="http://www.w3.org/2000/svg"
   xmlns="http://www.w3.org/2000/svg"
   xmlns:sodipodi="http://sodipodi.sourceforge.net/DTD/sodipodi-0.dtd"
   xmlns:inkscape="http://www.inkscape.org/namespaces/inkscape"
   viewBox="0 0 100 60"
   version="1.1"
   id="svg8"
   inkscape:version="1.0.1 (3bc2e813f5, 2020-09-07)"
   sodipodi:docname="logo.svg">
  <defs
     id="defs2">
    <inkscape:path-effect
       effect="skeletal"
       id="path-effect1444"
       is_visible="true"
       lpeversion="1"
       pattern="M 0,5 C 0,2.24 2.24,0 5,0 7.76,0 10,2.24 10,5 10,7.76 7.76,10 5,10 2.24,10 0,7.76 0,5 Z"
       copytype="single_stretched"
       prop_scale="1"
       scale_y_rel="false"
       spacing="0"
       normal_offset="0"
       tang_offset="0"
       prop_units="false"
       vertical_pattern="false"
       hide_knot="false"
       fuse_tolerance="0" />
  </defs>
  <sodipodi:namedview
     id="base"
     pagecolor="#ffffff"
     bordercolor="#666666"
     borderopacity="1.0"
     inkscape:pageopacity="0.0"
     inkscape:pageshadow="2"
     inkscape:zoom="8"
     inkscape:cx="62.826312"
     inkscape:cy="39.113011"
     inkscape:document-units="mm"
     inkscape:current-layer="layer1"
     inkscape:document-rotation="0"
     showgrid="false"
     inkscape:window-width="1920"
     inkscape:window-height="1027"
     inkscape:window-x="-8"
     inkscape:window-y="-8"
     inkscape:window-maximized="1" />
  <metadata
     id="metadata5">
    <rdf:RDF>
      <cc:Work
         rdf:about="">
        <dc:format>image/svg+xml</dc:format>
        <dc:type
           rdf:resource="http://purl.org/dc/dcmitype/StillImage" />
        <dc:title />
      </cc:Work>
    </rdf:RDF>
  </metadata>
  <g
     inkscape:label="Vrstva 1"
     inkscape:groupmode="layer"
     id="layer1">
    <path
       style="fill:#afdde9;fill-opacity:0.603239;stroke:#000000;stroke-width:0;stroke-miterlimit:4;stroke-dasharray:none"
       d=""
       id="path1392"
       transform="scale(0.26458333)" />
    <g
       id="g940"
       transform="matrix(0.81378007,0,0,0.81378007,5.1667474,-8.6795219)">
      <path
         style="fill:none;stroke:#000000;stroke-width:0.264583px;stroke-linecap:butt;stroke-linejoin:miter;stroke-opacity:1"
         d="m 14.944601,39.50938 c 5.01187,-17.338952 18.069546,-21.611346 33.911383,-23.19762 24.028641,0.152942 32.804171,11.272117 37.637911,23.94293 v 0 c 4.94115,-0.47771 15.576845,2.48074 19.750595,6.33509 l 4.09336,0.30677 c 2.75415,0.20641 2.15367,9.75081 0.18084,9.68704 l 0.19569,2.49942 c 1.56376,1.37367 4.64469,0.002 4.18766,4.80315 -1.27851,4.25392 -4.60624,4.80531 -6.37836,4.22899 -1.50474,1.29542 -3.22985,1.26859 -5.08539,0.45919 -0.96625,4.83702 -3.15602,8.9796 -10.562585,10.16131 -7.35858,0.27425 -11.21259,-3.48707 -12.78,-9.88145 -0.59262,0.4358 -0.87593,1.06107 -2.47037,0.9058 -1.51721,-0.14775 -1.8308,-0.78393 -2.0751,-1.49869 H 34.443433 c -0.438595,0.49459 -1.388734,0.96802 -2.108042,0.98815 -0.679519,0.0971 -1.87843,-0.32345 -2.503299,-0.79052 -1.17213,4.80893 -2.409376,9.58597 -11.989485,10.27671 -6.98379,-0.5168 -10.559591,-4.05211 -11.396598,-10.0132 -1.842513,1.72058 -3.3610615,1.17341 -4.6772165,-0.79052 -2.27036802,-0.54592 -4.832472,1.24205 -6.455877,-4.47958 -0.354848,-1.84311 0.509685,-3.22895 2.964433,-4.01846 l 0.263505,-2.23979 c -1.949447,-0.66758 -2.528852,-2.78131 -1.317525,-6.78526 3.41981898,-5.6713 5.301142,-3.13729 7.7734015,-3.75495 2.59726,-3.93837 6.335613,-5.40544 9.947871,-7.14451 z"
         id="path847"
         sodipodi:nodetypes="cccccscccccccsccccccccccccc" />
      <path
         style="fill:none;stroke:#000000;stroke-width:0.264583px;stroke-linecap:butt;stroke-linejoin:miter;stroke-opacity:1"
         d="M 20.082399,40.00039 C 30.333,43.23309 37.108205,41.2527 44.720134,40.5274 48.743214,34.77696 48.020003,27.931219 47.618689,21.159763 31.029671,22.833598 23.729966,30.28187 20.082399,40.00039 Z"
         id="path849"
         sodipodi:nodetypes="cccc" />
      <path
         style="fill:none;stroke:#000000;stroke-width:0.264583px;stroke-linecap:butt;stroke-linejoin:miter;stroke-opacity:1"
         d="m 20.082399,40.00039 v 0"
         id="path851" />
      <path
         style="fill:none;stroke:#000000;stroke-width:0.264583px;stroke-linecap:butt;stroke-linejoin:miter;stroke-opacity:1"
         d="m 53.679305,21.686774 c -1.26202,5.608634 -1.40116,11.523506 1.18578,18.181856 8.4043,1.54893 18.14913,0.4168 27.53629,0 -5.94642,-9.083625 -10.57265,-19.267404 -28.72207,-18.181856 z"
         id="path853"
         sodipodi:nodetypes="cccc" />
      <path
         style="fill:none;stroke:#000000;stroke-width:0.264583px;stroke-linecap:butt;stroke-linejoin:miter;stroke-opacity:1"
         d="M 53.679305,21.686774 Z"
         id="path855" />
      <path
         style="fill:none;stroke:#000000;stroke-width:0.264583px;stroke-linecap:butt;stroke-linejoin:miter;stroke-opacity:1"
         d="M 53.679305,21.686774 Z"
         id="path857" />
      <path
         style="fill:none;stroke:#000000;stroke-width:0.264583px;stroke-linecap:butt;stroke-linejoin:miter;stroke-opacity:1"
         d="m 49.858483,43.82121 0.52701,18.57711 v 0"
         id="path859" />
      <path
         style="fill:none;stroke:#000000;stroke-width:0.264583px;stroke-linecap:butt;stroke-linejoin:miter;stroke-opacity:1"
         d="m 83.850645,43.68946 0.39526,6.71938"
         id="path861" />
      <path
         style="fill:none;stroke:#000000;stroke-width:0.264583px;stroke-linecap:butt;stroke-linejoin:miter;stroke-opacity:1"
         d="m 17.052092,43.16245 0.131752,5.66536"
         id="path863" />
      <path
         style="fill:none;stroke:#000000;stroke-width:0.264583px;stroke-linecap:butt;stroke-linejoin:miter;stroke-opacity:1"
         d="m -1.7226505,59.43389 5.4347925,-0.0659 c 2.19487,-3.44935 4.782112,-6.94866 13.471702,-7.37814 13.218647,-0.49938 17.886425,9.86719 17.259589,16.27144 -1.213863,1.11921 -2.674004,1.43591 -4.611341,0.19763 -3.337942,-6.99517 -5.775613,-9.41854 -11.293102,-9.81088 -4.589631,0.44152 -8.171887,0.82927 -11.994167,9.54738 l -0.09881,0.52701"
         id="path865"
         sodipodi:nodetypes="cccccccc" />
      <path
         style="fill:none;stroke:#000000;stroke-width:0.264583px;stroke-linecap:butt;stroke-linejoin:miter;stroke-opacity:1"
         d="m 3.712142,59.36799 c -1.2836625,2.40045 -2.3737965,4.93913 -1.9433515,8.56394 v 0 0"
         id="path867"
         sodipodi:nodetypes="cccc" />
      <path
         style="fill:none;stroke:#000000;stroke-width:0.264583px;stroke-linecap:butt;stroke-linejoin:miter;stroke-opacity:1"
         d="m 17.183844,48.82781 c 12.440364,0.30965 18.249041,7.06676 21.796848,16.02195 l 34.563533,-2.32908 c 3.95158,-10.39351 8.51213,-10.58975 10.70168,-12.11184 15.218375,-3.48963 21.309685,5.17618 21.253275,4.75195 0.48176,-1.34946 1.47801,-3.51934 0.0932,-5.3103 -3.29359,-4.25958 -11.40451,-8.2864 -19.098455,-9.5958"
         id="path869"
         sodipodi:nodetypes="cccccsc" />
      <path
         style="fill:none;stroke:#000000;stroke-width:0.264583px;stroke-linecap:butt;stroke-linejoin:miter;stroke-opacity:1"
         d="m 37.024265,46.58978 c -0.511905,2.01821 1.180791,2.56668 3.633364,2.60857 2.195678,0.0529 4.745994,0.0889 4.471831,-1.95643 -0.08679,-2.29133 -7.812378,-2.17291 -8.105195,-0.65214 z"
         id="path871"
         sodipodi:nodetypes="cccc" />
      <path
         style="fill:none;stroke:#000000;stroke-width:0.264583px;stroke-linecap:butt;stroke-linejoin:miter;stroke-opacity:1"
         d="m 56.495355,46.96244 c 0.40757,2.6264 2.39051,2.5091 5.40347,2.70172 1.80041,-0.007 3.25574,-0.49762 3.81969,-2.23591 0.27933,-2.39776 -9.73525,-3.85038 -9.22316,-0.46581 z"
         id="path873"
         sodipodi:nodetypes="cccc" />
      <path
         style="fill:none;stroke:#000000;stroke-width:0.264583px;stroke-linecap:butt;stroke-linejoin:miter;stroke-opacity:1"
         d="m 75.550235,68.26131 c 0.28481,-8.70378 3.66547,-15.32122 15.32233,-16.36123 16.306465,-0.17253 18.195945,13.3699 17.651115,16.21507 v 0"
         id="path875"
         sodipodi:nodetypes="cccc" />
      <path
         style="fill:none;stroke:#000000;stroke-width:0.264583px;stroke-linecap:butt;stroke-linejoin:miter;stroke-opacity:1"
         d="m 80.095705,68.8542 c 1.99124,-5.40526 4.89544,-9.59325 10.59053,-10.06005 8.573425,-0.70244 9.776465,5.3513 12.752055,9.78019"
         id="path877"
         sodipodi:nodetypes="ccc" />
      <path
         style="fill:none;stroke:#000000;stroke-width:0.264583px;stroke-linecap:butt;stroke-linejoin:miter;stroke-opacity:1"
         d="M 17.183844,48.82781 C 4.638266,49.55255 1.2288115,59.64735 0.78380248,59.35313 v 0 l -0.09316,0.0932"
         id="path885"
         sodipodi:nodetypes="cccc" />
      <path
         style="fill:none;stroke:#000000;stroke-width:0.264583px;stroke-linecap:butt;stroke-linejoin:miter;stroke-opacity:1"
         d="m 4.996728,46.65389 c -2.5247575,3.0474 -4.91252152,6.26605 -6.4558755,10.54021 v 0"
         id="path887"
         sodipodi:nodetypes="ccc" />
      <path
         style="fill:none;stroke:#000000;stroke-width:0.264583px;stroke-linecap:butt;stroke-linejoin:miter;stroke-opacity:1"
         d="m 14.571948,62.52068 c -4.403181,3.25646 -1.998356,7.81034 0.186325,8.8505 1.796931,1.35467 7.872341,2.18181 8.757338,-3.44704 0.02241,-5.06597 -5.612209,-7.33054 -8.943663,-5.40346 z"
         id="path889"
         sodipodi:nodetypes="cccc" />
      <path
         style="fill:none;stroke:#000000;stroke-width:0.264583px;stroke-linecap:butt;stroke-linejoin:miter;stroke-opacity:1"
         d="m 90.910675,61.85674 c -5.5286,0.34147 -5.1907,5.64171 -3.69359,7.89256 1.5344,2.30692 8.115055,4.26423 9.798115,-1.17867 0.60692,-1.96275 0.64304,-7.13064 -6.104525,-6.71389 z"
         id="path891"
         sodipodi:nodetypes="ssss" />
      <path
         style="fill:none;stroke:#000000;stroke-width:0.264583px;stroke-linecap:butt;stroke-linejoin:miter;stroke-opacity:1"
         d="m 106.24449,46.58978 c 2.07025,2.21011 3.85574,4.91481 4.2742,9.99381"
         id="path893"
         sodipodi:nodetypes="cc" />
      <path
         style="fill:none;stroke:#000000;stroke-width:0.264583px;stroke-linecap:butt;stroke-linejoin:miter;stroke-opacity:1"
         d="m 110.71438,59.08301 c -1.53855,0.98963 -2.81538,0.75789 -4.09724,0.54961"
         id="path895"
         sodipodi:nodetypes="cc" />
      <path
         style="fill:none;stroke:#000000;stroke-width:0.264583px;stroke-linecap:butt;stroke-linejoin:miter;stroke-opacity:1"
         d="M 32.239045,68.3682 Z"
         id="path1366" />
      <path
         style="fill:#00c2d4;fill-opacity:0.635628;stroke:#000000;stroke-width:0;stroke-miterlimit:4;stroke-dasharray:none"
         d="M 38.603592,63.331256 C 36.662001,58.739743 33.539798,54.659812 30.266791,52.437153 27.03094,50.239728 22.14716,48.694918 18.427817,48.692318 l -1.075761,-7.94e-4 v -2.80633 c 0,-2.444289 -0.03851,-2.806329 -0.298461,-2.806329 -0.26597,0 -0.283729,0.305488 -0.163131,2.806329 l 0.135326,2.80633 -0.725538,0.0024 c -1.149437,0.0039 -3.955994,0.648094 -5.607153,1.287034 -3.282381,1.270161 -6.788404,4.236656 -8.9788945,7.597164 L 0.67758818,59.16842 h -1.0403655 -1.04036808 l 0.082441,-0.982215 c 0.155448,-1.852099 1.98958198,-5.418381 4.5211047,-8.790818 2.7393377,-3.649289 3.0206267,-3.998841 3.9597727,-4.920718 1.290376,-1.266648 2.703778,-2.188348 5.583272,-3.640937 l 2.410653,-1.216078 0.626891,-1.870887 c 2.929792,-8.743635 8.709874,-14.718437 17.367869,-17.952958 3.756305,-1.40331 10.506786,-2.810515 15.353461,-3.20058 1.664737,-0.133979 6.311977,0.163455 9.133996,0.584597 12.845068,1.916925 21.293156,7.805254 26.577054,18.524249 0.655807,1.330381 1.39188,2.945114 1.635715,3.588303 0.408448,1.077391 0.494948,1.177885 1.099053,1.27684 1.419754,0.232563 5.428385,1.388631 7.111753,2.050991 4.1739,1.642327 7.95884,3.92248 10.15985,6.120569 1.8416,1.839164 2.15228,2.856045 1.5215,4.980073 l -0.29083,0.97936 -0.69138,-0.576546 c -2.30927,-1.925722 -4.96313,-3.304227 -7.80075,-4.051977 -2.52147,-0.664445 -7.021206,-0.823129 -10.184871,-0.359177 -1.603164,0.235106 -2.160911,0.258178 -2.262624,0.0936 -0.07425,-0.120129 -0.195615,-1.556187 -0.269711,-3.191235 -0.112065,-2.472814 -0.182439,-2.972816 -0.418418,-2.972816 -0.225671,0 -0.262006,0.162631 -0.177649,0.795126 0.05833,0.437319 0.161766,1.944065 0.229865,3.34832 l 0.123814,2.553195 -1.845646,0.952558 c -1.015106,0.523904 -2.320329,1.331738 -2.900492,1.795182 -1.86378,1.488819 -3.884705,4.470609 -5.229751,7.716295 -0.451954,1.090592 -0.733076,1.540142 -0.965198,1.543481 -0.336058,0.0048 -22.130257,1.470155 -29.308927,1.97057 -2.20291,0.153561 -4.141592,0.279204 -4.308181,0.279204 -0.196464,0 -0.490514,-0.443709 -0.836899,-1.262849 z m 11.965263,-2.99342 c -0.05913,-1.209061 -0.196501,-5.438595 -0.30525,-9.398965 -0.108754,-3.960371 -0.23382,-7.236762 -0.277926,-7.280868 -0.294886,-0.294886 -0.313037,1.091957 -0.111826,8.545515 0.124243,4.602499 0.224282,8.810175 0.222308,9.350394 -0.0028,0.766744 0.06045,0.982215 0.288316,0.982215 0.254016,0 0.277948,-0.285316 0.184378,-2.198291 z M 64.236277,49.457614 c 0.804693,-0.36545 1.466895,-1.125048 1.663425,-1.90809 0.325898,-1.298477 -1.945751,-2.498056 -5.1602,-2.724923 -3.685863,-0.260133 -5.169382,0.911874 -4.109419,3.24652 0.583991,1.28628 1.74716,1.696696 4.874898,1.720075 1.539385,0.01151 2.130359,-0.06067 2.731296,-0.333582 z M 44.475115,48.964463 c 1.358749,-0.798113 1.172945,-2.444001 -0.35573,-3.151172 -0.737531,-0.341183 -1.203947,-0.395777 -3.381245,-0.395777 -2.203739,0 -2.608369,0.04857 -3.174233,0.381 -0.73152,0.429752 -0.968854,1.124514 -0.715862,2.095572 0.288981,1.109188 1.697268,1.543902 4.82554,1.489561 1.784516,-0.031 2.262396,-0.102502 2.80153,-0.419184 z m -3.677042,-7.710263 4.082341,-0.519234 0.644469,-1.022125 c 1.403956,-2.22667 2.364679,-5.753415 2.599627,-9.543052 0.115469,-1.862421 -0.178687,-8.944303 -0.379865,-9.145485 -0.152702,-0.152699 -3.749059,0.34053 -5.986328,0.821008 -5.574098,1.197099 -9.958493,3.171737 -13.675854,6.159312 -2.865155,2.302671 -4.934905,4.981215 -6.805168,8.806812 -0.704273,1.440582 -1.329878,2.795675 -1.390235,3.011313 -0.101772,0.36363 0.06623,0.435705 2.31616,0.993682 3.916582,0.971307 5.554133,1.136841 10.303018,1.041509 3.075374,-0.06174 5.309359,-0.224399 8.291835,-0.60374 z M 77.58875,40.371571 c 2.723595,-0.168052 4.987758,-0.341317 5.031476,-0.385034 0.104388,-0.104389 -2.503692,-4.22007 -4.486585,-7.080052 -1.753195,-2.528686 -4.627091,-5.632257 -6.502387,-7.022047 -1.778219,-1.317842 -3.756218,-2.333559 -6.010322,-3.086335 -2.755789,-0.920319 -4.822082,-1.247511 -8.64734,-1.369282 l -3.315317,-0.105537 -0.195431,0.514029 c -0.10749,0.282716 -0.31573,1.283949 -0.462757,2.224961 -0.796776,5.099624 -0.500869,9.074663 1.049129,14.09329 l 0.588478,1.905392 1.268259,0.213921 c 0.697542,0.117655 2.011159,0.285446 2.919148,0.372869 2.417643,0.232778 13.05184,0.07626 18.763649,-0.276175 z"
         id="path1368" />
      <path
         style="fill:#0096d4;fill-opacity:1;stroke:#000000;stroke-width:0;stroke-miterlimit:4;stroke-dasharray:none"
         d="M 34.635559,66.130944 C 34.409558,62.029545 32.299482,57.924037 29.066308,55.295032 25.004732,51.992421 18.770249,50.92416 12.418476,52.442474 9.051442,53.247323 6.350548,55.083344 4.457124,57.854468 L 3.559263,59.168532 H 2.469754 c -0.5992284,0 -1.0895092,-0.0459 -1.0895092,-0.101995 0,-0.323212 2.1057817,-3.13758 3.2448372,-4.336706 3.874095,-4.078417 9.395769,-6.122611 14.888363,-5.511863 8.42183,0.936464 13.980133,4.885523 17.834192,12.670824 0.558297,1.127776 1.118682,2.313138 1.245303,2.634139 0.214599,0.544036 0.283316,0.578673 1.012756,0.510471 0.430396,-0.04024 7.138874,-0.49395 14.907731,-1.008242 16.261477,-1.076497 19.121337,-1.277086 19.187202,-1.345793 0.02619,-0.02733 0.387914,-0.84025 0.80381,-1.806482 1.228,-2.852968 2.382139,-4.619329 4.236971,-6.484509 1.435179,-1.443188 1.987664,-1.850885 3.741772,-2.76117 2.651614,-1.376045 4.213357,-1.689193 8.512535,-1.70687 3.403953,-0.014 4.776133,0.184973 7.296453,1.058005 2.55656,0.885582 4.4882,2.037149 6.2968,3.75389 0.42772,0.406001 0.86743,0.682707 0.97714,0.614905 0.30616,-0.189219 0.95847,-2.483215 0.95386,-3.354454 -0.006,-1.207439 -0.62877,-2.311757 -2.11786,-3.757858 -2.63462,-2.558584 -7.24256,-5.124077 -12.096772,-6.734948 -2.814878,-0.934119 -2.580539,-1.082391 0.634452,-0.401439 4.17712,0.884735 8.95473,2.745346 11.65967,4.540787 0.54616,0.362517 1.43414,1.147908 1.97331,1.745319 2.33721,2.589705 3.37514,5.363919 3.79646,10.147311 l 0.12773,1.450287 -0.67081,0.280283 c -0.96119,0.401611 -2.85585,0.373687 -3.19695,-0.04712 -0.14596,-0.180073 -0.68317,-0.855933 -1.1938,-1.501908 -2.28106,-2.885646 -5.40559,-4.750427 -9.29474,-5.54728 -5.495275,-1.125932 -11.089776,-0.09103 -15.177343,2.807578 -2.850337,2.021258 -4.803981,5.698056 -5.314346,10.001716 -0.115459,0.973616 -0.249465,2.043829 -0.297791,2.378249 l -0.08787,0.608039 H 54.999877 34.73644 Z"
         id="path1370" />
      <path
         style="fill:#0096d4;fill-opacity:1;stroke:#000000;stroke-width:0;stroke-miterlimit:4;stroke-dasharray:none"
         d="m 109.09654,68.019823 c -0.2704,-0.07067 -0.32763,-0.303035 -0.32871,-1.334691 -0.002,-1.543679 -0.55807,-3.927535 -1.29739,-5.55807 l -0.55816,-1.231 0.78811,0.111985 c 0.48777,0.06931 1.18027,-0.0013 1.8171,-0.185386 1.29328,-0.37375 1.13686,-0.384672 2.85358,0.199252 1.72116,0.585436 2.17415,1.08753 2.32825,2.580624 0.21326,2.066222 -1.58794,4.625491 -3.69598,5.251511 -0.99864,0.296564 -1.30454,0.32316 -1.9068,0.165775 z"
         id="path1372" />
      <path
         style="fill:#0096d4;fill-opacity:1;stroke:#000000;stroke-width:0;stroke-miterlimit:4;stroke-dasharray:none"
         d="m -1.9603685,67.231037 c -1.887429,-0.857168 -3.1358469,-4.45511 -2.0862395,-6.012543 0.7701703,-1.142793 1.7515072,-1.475367 4.75682988,-1.61208 L 3.3615876,59.485804 2.8178954,60.627307 C 1.9715462,62.404246 1.5192807,64.28941 1.5192807,66.040279 v 1.547244 l -1.35639442,-0.0041 c -0.9159663,-0.0028 -1.60539638,-0.117196 -2.12325478,-0.352379 z"
         id="path1374" />
      <path
         style="fill:#ffdd55;fill-opacity:1;stroke:#000000;stroke-width:0;stroke-miterlimit:4;stroke-dasharray:none"
         d="m 110.45533,54.519051 c -0.52604,-2.87528 -1.52732,-5.144725 -3.06777,-6.953234 l -0.61042,-0.716642 1.45232,0.09831 c 2.08473,0.14111 2.51911,0.281667 2.97948,0.964088 1.02885,1.52513 0.95861,6.598862 -0.10962,7.918074 -0.32386,0.399953 -0.3353,0.376667 -0.64399,-1.310592 z"
         id="path1376" />
      <path
         style="fill:#ffdd55;fill-opacity:0.623482;stroke:#000000;stroke-width:0;stroke-miterlimit:4;stroke-dasharray:none"
         d="m -2.2672216,56.414553 c -0.828802,-0.828805 -1.0516897,-1.882741 -0.7825978,-3.700579 0.2748624,-1.856841 0.6702001,-2.702698 1.9169882,-4.101563 1.44190238,-1.617776 2.6022088,-2.02315 4.6960262,-1.640634 l 0.709046,0.129535 -1.3362595,1.777344 c -1.6089947,2.140101 -3.15095992,4.715023 -3.9398018,6.57906 -0.3193892,0.754713 -0.6095524,1.403509 -0.6448081,1.441765 -0.035258,0.03826 -0.3136239,-0.179959 -0.6185932,-0.484928 z"
         id="path1378" />
      <path
         style="fill:#ffdd55;fill-opacity:0.603239;stroke:#000000;stroke-width:0;stroke-miterlimit:4;stroke-dasharray:none"
         d="m 110.45986,54.172418 c -0.47087,-2.28754 -1.28415,-4.274931 -2.39908,-5.862524 l -0.95605,-1.361371 1.40511,0.118774 c 1.9813,0.167481 2.33571,0.342276 2.81764,1.38965 0.35133,0.763545 0.40947,1.220425 0.41076,3.228038 10e-4,1.82218 -0.0742,2.534851 -0.34137,3.227279 -0.18858,0.48877 -0.40113,0.888672 -0.47234,0.888672 -0.0712,0 -0.28031,-0.732832 -0.46467,-1.628518 z"
         id="path1380" />
      <path
         style="fill:#ffdd55;fill-opacity:0.603239;stroke:#000000;stroke-width:0;stroke-miterlimit:4;stroke-dasharray:none"
         d="m 110.45883,54.167452 c -0.55,-2.671977 -1.3193,-4.37333 -3.06115,-6.769862 l -0.32858,-0.452078 1.42292,0.12028 c 1.99942,0.169013 2.35251,0.342159 2.83697,1.391155 0.73969,1.601655 0.47466,7.010876 -0.3571,7.288128 -0.0969,0.03231 -0.3278,-0.677622 -0.51306,-1.577623 z"
         id="path1382" />
      <path
         style="fill:#ffdd55;fill-opacity:0.603239;stroke:#000000;stroke-width:0;stroke-miterlimit:4;stroke-dasharray:none"
         d="m -2.4073106,56.068073 c -0.6232022,-0.817057 -0.7822221,-2.182329 -0.4505483,-3.86819 0.2903881,-1.476013 0.6918642,-2.255031 1.793785,-3.480631 1.19907308,-1.333659 1.99357448,-1.711484 3.598955,-1.711484 0.7072419,0 1.3330789,0.04719 1.3907509,0.104857 0.05767,0.05767 -0.5492859,1.018678 -1.3487932,2.135566 -1.57822642,2.204736 -3.05201902,4.715058 -3.7628168,6.409235 -0.2475019,0.589913 -0.5088573,1.074005 -0.5807948,1.075759 -0.071938,0.0019 -0.36018,-0.297543 -0.6405378,-0.665112 z"
         id="path1384" />
      <path
         style="fill:#ffdd55;fill-opacity:0.603239;stroke:#000000;stroke-width:0;stroke-miterlimit:4;stroke-dasharray:none"
         d="m 39.634999,48.895991 c -1.306444,-0.16284 -1.848107,-0.414234 -2.265688,-1.051544 -0.449918,-0.686662 -0.203499,-1.358506 0.63532,-1.732142 0.514456,-0.229153 1.229374,-0.307512 2.7529,-0.301734 2.311209,0.0088 3.320891,0.283332 3.90145,1.060929 0.315897,0.423109 0.332984,0.559835 0.130922,1.047652 -0.141486,0.341577 -0.447956,0.636188 -0.783471,0.753147 -0.781357,0.272383 -3.049583,0.388451 -4.371433,0.223692 z"
         id="path1386" />
      <path
         style="fill:#ffdd55;fill-opacity:0.603239;stroke:#000000;stroke-width:0;stroke-miterlimit:4;stroke-dasharray:none"
         d="m 59.559942,49.257648 c -1.36624,-0.176877 -2.128864,-0.598144 -2.500469,-1.381242 -0.681762,-1.436709 -0.144523,-2.247688 1.704792,-2.573438 2.729656,-0.480819 6.996615,0.939213 6.662404,2.217232 -0.157363,0.601761 -1.212495,1.492311 -2.03141,1.714548 -0.817821,0.221938 -2.232612,0.230386 -3.835317,0.02289 z"
         id="path1388" />
      <path
         style="fill:#afdde9;fill-opacity:0.603239;stroke:#000000;stroke-width:0;stroke-miterlimit:4;stroke-dasharray:none"
         d="m 77.32404,69.461762 c -0.385532,-0.07224 -0.880301,-0.29197 -1.099479,-0.488296 -0.373636,-0.334677 -0.391604,-0.479576 -0.287874,-2.321388 0.292692,-5.19697 2.385843,-9.346359 5.883634,-11.663511 3.136009,-2.077481 7.610174,-3.142665 11.526906,-2.744255 4.350943,0.442579 7.641193,1.775333 10.243893,4.14941 2.4273,2.214083 4.11243,5.578065 4.65581,9.294278 0.28968,1.981155 0.1881,2.332916 -0.81381,2.817931 -1.37789,0.667025 -3.38686,0.397719 -4.05735,-0.54389 -0.194,-0.272437 -0.87286,-1.411534 -1.50858,-2.531327 -1.99346,-3.511339 -3.36005,-5.046046 -5.31812,-5.972363 -1.41333,-0.668615 -2.36273,-0.841357 -4.652495,-0.846511 -3.899376,-0.0088 -6.56582,1.21997 -8.832863,4.070369 -0.801619,1.00789 -3.07427,5.275752 -3.07427,5.773235 0,0.296862 -0.896456,0.921586 -1.496711,1.043029 -0.257247,0.05205 -0.783159,0.03553 -1.168691,-0.03671 z"
         id="path1390" />
      <path
         style="fill:#afdde9;fill-opacity:0.603239;stroke:#000000;stroke-width:0;stroke-miterlimit:4;stroke-dasharray:none"
         d="M 3.2500446,69.125683 C 2.188867,68.425823 1.9734671,67.939072 1.9734671,66.240926 c 0,-2.56486 0.7884451,-4.913932 2.5307709,-7.540117 2.199233,-3.314874 4.299649,-4.828058 8.118698,-5.84889 1.600102,-0.427706 2.162442,-0.480755 5.253069,-0.495554 3.995467,-0.01913 5.4737,0.268529 8.153815,1.586699 4.738687,2.330646 8.04794,7.45056 8.17807,12.652719 0.04327,1.729853 -0.08233,1.931926 -1.43737,2.312484 -0.598345,0.168042 -0.89706,0.143362 -1.683798,-0.139126 C 30.145535,68.4312 30.113209,68.393409 29.055804,66.395117 26.437138,61.446324 24.190765,59.443873 20.387821,58.668342 19.145809,58.415059 18.654827,58.403933 17.089824,58.593612 12.155922,59.191591 9.6973,61.177495 6.985427,66.755245 6.275084,68.216269 5.853452,68.859315 5.440855,69.110926 4.7267,69.546435 3.896498,69.552029 3.2500446,69.125686 Z"
         id="path1394" />
      <path
         style="fill:#afdde9;fill-opacity:0.603239;stroke:#000000;stroke-width:0;stroke-miterlimit:4;stroke-dasharray:none"
         d="m 27.711543,41.38986 c -3.071749,-0.352139 -7.218328,-1.351534 -7.213607,-1.738598 0.0016,-0.121322 0.427759,-1.104577 0.947293,-2.185017 4.364349,-9.076242 11.836421,-14.008983 23.921833,-15.792164 1.074401,-0.158525 1.992133,-0.249552 2.039403,-0.202282 0.04727,0.04727 0.127082,2.151597 0.177358,4.676283 0.12659,6.356856 -0.294661,9.028663 -1.931977,12.253608 -1.025874,2.020623 -0.59963,1.831729 -5.519703,2.44611 -4.787413,0.597818 -9.963658,0.82372 -12.4206,0.54206 z"
         id="path1396" />
      <path
         style="fill:#afdde9;fill-opacity:0.603239;stroke:#000000;stroke-width:0;stroke-miterlimit:4;stroke-dasharray:none"
         d="m 59.816225,40.40428 c -2.07957,-0.17453 -4.48196,-0.51355 -4.73132,-0.66766 -0.2298,-0.14203 -1.03584,-2.80617 -1.50875,-4.9868 -0.55134,-2.542242 -0.59936,-8.071198 -0.0938,-10.79965 0.18021,-0.972531 0.37344,-1.814028 0.4294,-1.869998 0.17967,-0.179668 5.16364,-0.05339 6.79006,0.172048 2.75538,0.381913 5.03875,1.074253 7.4075,2.246029 3.55662,1.759403 6.10942,4.026205 9.05288,8.038653 1.45536,1.983918 4.78194,7.101548 4.67714,7.195348 -0.0399,0.0357 -2.51406,0.20743 -5.49812,0.3816 -6.5519,0.38239 -13.89213,0.5114 -16.52499,0.29043 z"
         id="path1398" />
      <path
         style="fill:#504416;fill-opacity:1;stroke:#000000;stroke-width:0;stroke-miterlimit:4;stroke-dasharray:none"
         d="M 15.436165,78.173838 C 11.818158,77.335881 9.339978,75.567105 7.958988,72.837078 7.40432,71.740579 6.736544,69.575528 6.736544,68.873697 c 0,-0.299913 0.390149,-1.322372 0.867,-2.272128 2.304901,-4.590743 4.617474,-6.661764 8.206798,-7.349588 3.843583,-0.736547 6.844339,0.01286 9.31858,2.327225 1.06825,0.999223 2.586003,3.237079 3.675941,5.420008 l 0.780512,1.563211 -0.486716,1.696778 c -1.237322,4.313518 -3.319344,6.454468 -7.411575,7.621339 -1.7839,0.508667 -4.725167,0.646673 -6.250919,0.293296 z m 5.17828,-6.009407 c 1.652685,-0.566272 3.147166,-2.739689 3.147166,-4.576908 0,-0.818661 -0.518451,-2.303365 -1.123075,-3.216177 -1.020765,-1.541076 -3.386812,-2.770661 -5.331483,-2.770661 -2.11309,0 -4.138541,1.317434 -4.959533,3.225882 -0.581123,1.350856 -0.471823,3.455424 0.242782,4.674806 1.522478,2.597912 4.921739,3.726061 8.024143,2.663058 z"
         id="path1400" />
      <path
         style="fill:#504416;fill-opacity:1;stroke:#000000;stroke-width:0;stroke-miterlimit:4;stroke-dasharray:none"
         d="m 88.532028,78.060342 c -2.938418,-0.769818 -5.284534,-2.602187 -6.642455,-5.187907 -0.827389,-1.575501 -1.441243,-3.265705 -1.437407,-3.95781 0.0043,-0.767918 1.788615,-4.281305 2.935917,-5.780796 1.261026,-1.648124 2.932573,-2.890891 4.785159,-3.557683 1.190038,-0.428323 1.638279,-0.486177 3.782187,-0.488161 2.085071,-0.0019 2.581811,0.05752 3.480841,0.416636 1.56759,0.626163 2.73671,1.477016 3.76531,2.740303 1.08388,1.331174 3.88563,6.11124 3.88563,6.629284 0,0.632875 -0.76744,2.889636 -1.37468,4.04242 -2.22482,4.22365 -8.03603,6.491483 -13.180502,5.143714 z m 6.229732,-6.308741 c 0.99137,-0.514045 1.66365,-1.247621 2.18732,-2.386737 0.60396,-1.313788 0.61794,-3.952166 0.0268,-5.051393 -0.5381,-1.000546 -1.27131,-1.668132 -2.40117,-2.186247 -0.80043,-0.367056 -1.232459,-0.427659 -2.993417,-0.419899 -2.223551,0.0098 -2.910957,0.202922 -4.008025,1.126043 -1.331172,1.120108 -1.822251,3.248528 -1.243137,5.387956 0.512956,1.89501 1.89125,3.196773 4.021868,3.798554 1.233104,0.348285 3.484931,0.211291 4.409801,-0.268277 z"
         id="path1402" />
      <path
         style="fill:#c8beb7;fill-opacity:1;stroke:#000000;stroke-width:0;stroke-miterlimit:4;stroke-dasharray:none"
         d="m 15.970595,71.688086 c -0.529257,-0.203539 -1.353627,-0.714545 -1.831938,-1.135568 -2.202678,-1.938877 -2.366624,-4.725347 -0.403916,-6.865083 1.00072,-1.09098 2.047446,-1.548871 3.540683,-1.548871 1.629569,0 3.085143,0.580001 4.202745,1.674662 1.131586,1.108358 1.587251,2.064798 1.686864,3.540725 0.138213,2.047849 -0.991454,3.749191 -2.947704,4.439396 -1.122476,0.396031 -3.068664,0.347793 -4.246734,-0.105261 z"
         id="path1404" />
      <path
         style="fill:#ffffff;fill-opacity:1;stroke:#000000;stroke-width:0;stroke-miterlimit:4;stroke-dasharray:none"
         d="m 90.832897,71.637765 c -2.800066,-0.722509 -4.284879,-2.515323 -4.284101,-5.172777 2.64e-4,-1.333275 0.314505,-2.223775 1.049657,-2.975705 0.799688,-0.817938 1.379681,-1.091147 2.790005,-1.314243 1.316466,-0.208251 3.045092,-0.03601 4.097122,0.408249 3.35574,1.417061 3.3318,7.026725 -0.0374,8.759878 -0.90862,0.46741 -2.45669,0.593556 -3.615303,0.294598 z"
         id="path1406" />
      <ellipse
         style="fill:#333333;fill-opacity:1;stroke:#000000;stroke-width:0;stroke-miterlimit:4;stroke-dasharray:none"
         id="path1424"
         cx="65.474335"
         cy="31.781359"
         rx="3.9515595"
         ry="3.7918692" />
      <ellipse
         style="fill:#333333;fill-opacity:1;stroke:#000000;stroke-width:0;stroke-miterlimit:4;stroke-dasharray:none"
         id="path1426"
         cx="33.84111"
         cy="33.78178"
         rx="3.5319872"
         ry="3.47719" />
      <path
         style="fill:none;stroke:#000000;stroke-width:0.264583px;stroke-linecap:butt;stroke-linejoin:miter;stroke-opacity:1"
         d="M 33.78871,36.46667 Z"
         id="path1438" />
      <ellipse
         style="fill:#333333;fill-opacity:1;stroke:#000000;stroke-width:0;stroke-miterlimit:4;stroke-dasharray:none"
         id="path1463"
         cx="81.948364"
         cy="25.249697"
         rx="5.1868973"
         ry="1.3375068"
         transform="matrix(0.98415004,0.17733781,-0.41900591,0.90798351,0,0)" />
      <ellipse
         style="fill:#333333;fill-opacity:1;stroke:#000000;stroke-width:0;stroke-miterlimit:4;stroke-dasharray:none;stroke-opacity:1"
         id="path1492"
         cx="33.557205"
         cy="38.384892"
         rx="1.2898433"
         ry="3.3734398" />
      <ellipse
         style="fill:#333333;fill-opacity:1;stroke:#000000;stroke-width:0;stroke-miterlimit:4;stroke-dasharray:none;stroke-opacity:1"
         id="path1492-4"
         cx="65.340263"
         cy="36.400524"
         rx="1.2898432"
         ry="4.4979191" />
      <ellipse
         style="fill:#333333;fill-opacity:1;stroke:#000000;stroke-width:0;stroke-miterlimit:4;stroke-dasharray:none"
         id="path1463-4"
         cx="52.749912"
         cy="13.724128"
         rx="5.5419855"
         ry="1.1077949"
         transform="matrix(0.83804214,0.5456055,-0.46027678,0.88777547,0,0)" />
      <ellipse
         style="fill:#c83737;fill-opacity:1;stroke:#000000;stroke-width:0;stroke-miterlimit:4;stroke-dasharray:none;stroke-opacity:1"
         id="path1526"
         cx="75.12986"
         cy="35.871365"
         rx="0.79375005"
         ry="4.299479" />
      <ellipse
         style="fill:#c83737;fill-opacity:1;stroke:#000000;stroke-width:0;stroke-miterlimit:4;stroke-dasharray:none;stroke-opacity:1"
         id="path1528"
         cx="90.422729"
         cy="-6.55023"
         rx="3.8725874"
         ry="0.518673"
         transform="matrix(0.87110713,0.49109304,0,1,0,0)" />
      <path
         style="fill:#c8b7b7;fill-opacity:1;stroke:#000000;stroke-width:0;stroke-miterlimit:4;stroke-dasharray:none;stroke-opacity:1"
         d="m 16.31604,71.70331 c -1.557332,-0.55454 -2.838418,-1.676562 -3.479316,-3.047307 -0.495631,-1.060056 -0.499964,-2.430259 -0.01095,-3.468433 0.726552,-1.542513 2.192647,-2.70487 3.665096,-2.905779 2.52748,-0.344861 5.095383,1.025184 6.151459,3.281966 0.351391,0.7509 0.408004,1.023916 0.414642,1.999591 0.0065,0.952794 -0.04665,1.245822 -0.338892,1.868998 -0.423703,0.903499 -1.092401,1.592374 -2.00602,2.066541 -0.612466,0.317868 -0.861274,0.362802 -2.211462,0.399368 -1.202621,0.03257 -1.660297,-0.0083 -2.18454,-0.194945 z"
         id="path1530" />
      <path
         style="fill:#ac9d93;fill-opacity:1;stroke:#000000;stroke-width:0;stroke-miterlimit:4;stroke-dasharray:none;stroke-opacity:1"
         d="m 91.484656,71.796438 c -1.113385,-0.18705 -2.047878,-0.542676 -2.898854,-1.103178 -1.303364,-0.858467 -1.936218,-2.048139 -2.05277,-3.858889 -0.125701,-1.952938 0.527346,-3.29024 2.004965,-4.105744 2.164157,-1.194408 5.804373,-0.815893 7.312973,0.760413 2.08338,2.176891 1.32691,6.550252 -1.36593,7.896751 -0.44414,0.222086 -2.033996,0.590212 -2.298002,0.532096 -0.03638,-0.008 -0.352452,-0.06266 -0.702382,-0.121449 z"
         id="path1532" />
      <path
         style="fill:#ac9d93;fill-opacity:1;stroke:#000000;stroke-width:0;stroke-miterlimit:4;stroke-dasharray:none;stroke-opacity:1"
         d="m 16.31604,71.70445 c -1.560256,-0.558263 -2.838768,-1.67845 -3.479316,-3.048447 -0.509079,-1.088819 -0.503523,-2.439225 0.01437,-3.493857 0.539369,-1.098357 1.418873,-2.010879 2.406941,-2.497302 0.738611,-0.363617 0.97564,-0.41411 1.942679,-0.413827 1.909765,5.3e-4 3.711366,0.84881 4.762299,2.242236 0.641498,0.850564 0.844346,1.282977 1.034434,2.205124 0.405339,1.96637 -0.512525,3.873307 -2.314059,4.807649 -0.576501,0.298995 -0.856864,0.349006 -2.182813,0.389384 -1.21481,0.037 -1.654984,-0.0016 -2.18454,-0.19096 z"
         id="path1534" />
    </g>
  </g>
</svg>
